# xmcd CD database file
#
# Track frame offsets:
#	150
#	17059
#	38788
#	55476
#	82130
#	100624
#	117898
#	135969
#	152369
#	165957
#	183374
#
# Disc length: 2658 seconds
#
# Revision: 1
# Processed by: cddbd v1.5.2PL0 Copyright (c) Steve Scherf et al.
# Submitted via: CDex 2.21
#
DISCID=7a0a600b
DTITLE=Tim McGraw and Faith Hill - The Rest of Our Life
DYEAR=2017
DGENRE=Country
TTITLE0=The Rest of Our Life
TTITLE1=Telluride
TTITLE2=The Bed We Made
TTITLE3=Cowboy Lullaby
TTITLE4=Break First
TTITLE5=Love Me to Lie
TTITLE6=Sleeping in the Stars
TTITLE7=Damn Good at Holding On
TTITLE8=Devil Callin' Me Back
TTITLE9=Speak to a Girl
TTITLE10=Roll the Dice
EXTD=YEAR: 2017
EXTT0=
EXTT1=
EXTT2=
EXTT3=
EXTT4=
EXTT5=
EXTT6=
EXTT7=
EXTT8=
EXTT9=
EXTT10=
PLAYORDER=
